<svg xmlns="http://www.w3.org/2000/svg" width="48" height="48" viewBox="0 0 48 48"><path fill="none" stroke="#0000ff" d="m 9.0167,18.778125 30.12674,0 m -30.286878,10.44375 30.126741,0 M 31.310625,24 c 0,8.651886 -3.273078,15.665625 -7.310625,15.665625 -4.037547,0 -7.310625,-7.013739 -7.310625,-15.665625 0,-8.651886 3.273078,-15.665625 7.310625,-15.665625 4.037547,0 7.310625,7.013739 7.310625,15.665625 z m 8.355,0 C 39.665625,32.651886 32.651886,39.665625 24,39.665625 15.348114,39.665625 8.334375,32.651886 8.334375,24 8.334375,15.348114 15.348114,8.334375 24,8.334375 c 8.651886,0 15.665625,7.013739 15.665625,15.665625 z"/></svg>